<?xml version="1.0" encoding="UTF-8" standalone="no"?>
<!DOCTYPE svg PUBLIC "-//W3C//DTD SVG 1.1//EN" "http://www.w3.org/Graphics/SVG/1.1/DTD/svg11.dtd">
<!-- 由 Microsoft Visio, SVG Export 生成 BitonicSort_example.svg 页-1 -->
<svg xmlns="http://www.w3.org/2000/svg" xmlns:xlink="http://www.w3.org/1999/xlink" xmlns:ev="http://www.w3.org/2001/xml-events"
		xmlns:v="http://schemas.microsoft.com/visio/2003/SVGExtensions/" width="1.78207in" height="2.56239in"
		viewBox="0 0 128.309 184.492" xml:space="preserve" color-interpolation-filters="sRGB" class="st6">
	<v:documentProperties v:langID="2052" v:viewMarkup="false"/>

	<style type="text/css">
	<![CDATA[
		.st1 {fill:#ffffff;stroke:#000000;stroke-linecap:round;stroke-linejoin:round;stroke-width:0.24}
		.st2 {fill:#000000;font-family:Times New Roman;font-size:0.833336em}
		.st3 {marker-end:url(#mrkr5-54);stroke:#000000;stroke-linecap:round;stroke-linejoin:round;stroke-width:0.75}
		.st4 {fill:#000000;fill-opacity:1;stroke:#000000;stroke-opacity:1;stroke-width:0.34246575342466}
		.st5 {stroke:#ff0000;stroke-dasharray:0.75,1.5;stroke-linecap:round;stroke-linejoin:round;stroke-width:0.75}
		.st6 {fill:none;fill-rule:evenodd;font-size:12px;overflow:visible;stroke-linecap:square;stroke-miterlimit:3}
	]]>
	</style>

	<defs id="Markers">
		<g id="lend5">
			<path d="M 2 1 L 0 0 L 1.98117 -0.993387 C 1.67173 -0.364515 1.67301 0.372641 1.98465 1.00043 " style="stroke:none"/>
		</g>
		<marker id="mrkr5-54" class="st4" v:arrowType="5" v:arrowSize="0" v:setback="4.63" refX="-4.63" orient="auto"
				markerUnits="strokeWidth" overflow="visible">
			<use xlink:href="#lend5" transform="scale(-2.92,-2.92) "/>
		</marker>
	</defs>
	<g v:mID="0" v:index="1" v:groupContext="foregroundPage">
		<title>页-1</title>
		<v:pageProperties v:drawingScale="0.0393701" v:pageScale="0.0393701" v:drawingUnits="24" v:shadowOffsetX="8.50394"
				v:shadowOffsetY="-8.50394"/>
		<v:layer v:name="连接线" v:index="0"/>
		<g id="shape412-1" v:mID="412" v:groupContext="shape" transform="translate(21.6348,-170.199)">
			<title>正方形.412</title>
			<desc>2</desc>
			<v:userDefs>
				<v:ud v:nameU="visVersion" v:val="VT0(15):26"/>
				<v:ud v:nameU="visMasterStencil" v:prompt="" v:val="VT4(Basic_M.vssx)"/>
			</v:userDefs>
			<v:textBlock v:margins="rect(4,4,4,4)" v:tabSpace="42.5197"/>
			<v:textRect cx="7.08661" cy="177.405" width="14.18" height="14.1732"/>
			<rect x="0" y="170.319" width="14.1732" height="14.1732" class="st1"/>
			<text x="4.59" y="180.41" class="st2" v:langID="2052"><v:paragraph v:horizAlign="1"/><v:tabList/>2</text>		</g>
		<g id="shape413-4" v:mID="413" v:groupContext="shape" transform="translate(35.8081,-170.199)">
			<title>正方形.413</title>
			<desc>1</desc>
			<v:userDefs>
				<v:ud v:nameU="visVersion" v:val="VT0(15):26"/>
				<v:ud v:nameU="visMasterStencil" v:prompt="" v:val="VT4(Basic_M.vssx)"/>
			</v:userDefs>
			<v:textBlock v:margins="rect(4,4,4,4)" v:tabSpace="42.5197"/>
			<v:textRect cx="7.08661" cy="177.405" width="14.18" height="14.1732"/>
			<rect x="0" y="170.319" width="14.1732" height="14.1732" class="st1"/>
			<text x="4.59" y="180.41" class="st2" v:langID="2052"><v:paragraph v:horizAlign="1"/><v:tabList/>1</text>		</g>
		<g id="shape414-7" v:mID="414" v:groupContext="shape" transform="translate(49.9813,-170.199)">
			<title>正方形.414</title>
			<desc>7</desc>
			<v:userDefs>
				<v:ud v:nameU="visVersion" v:val="VT0(15):26"/>
				<v:ud v:nameU="visMasterStencil" v:prompt="" v:val="VT4(Basic_M.vssx)"/>
			</v:userDefs>
			<v:textBlock v:margins="rect(4,4,4,4)" v:tabSpace="42.5197"/>
			<v:textRect cx="7.08661" cy="177.405" width="14.18" height="14.1732"/>
			<rect x="0" y="170.319" width="14.1732" height="14.1732" class="st1"/>
			<text x="4.59" y="180.41" class="st2" v:langID="2052"><v:paragraph v:horizAlign="1"/><v:tabList/>7</text>		</g>
		<g id="shape415-10" v:mID="415" v:groupContext="shape" transform="translate(64.1545,-170.199)">
			<title>正方形.415</title>
			<desc>3</desc>
			<v:userDefs>
				<v:ud v:nameU="visVersion" v:val="VT0(15):26"/>
				<v:ud v:nameU="visMasterStencil" v:prompt="" v:val="VT4(Basic_M.vssx)"/>
			</v:userDefs>
			<v:textBlock v:margins="rect(4,4,4,4)" v:tabSpace="42.5197"/>
			<v:textRect cx="7.08661" cy="177.405" width="14.18" height="14.1732"/>
			<rect x="0" y="170.319" width="14.1732" height="14.1732" class="st1"/>
			<text x="4.59" y="180.41" class="st2" v:langID="2052"><v:paragraph v:horizAlign="1"/><v:tabList/>3</text>		</g>
		<g id="shape416-13" v:mID="416" v:groupContext="shape" transform="translate(7.46161,-170.199)">
			<title>正方形.416</title>
			<desc>5</desc>
			<v:userDefs>
				<v:ud v:nameU="visVersion" v:val="VT0(15):26"/>
				<v:ud v:nameU="visMasterStencil" v:prompt="" v:val="VT4(Basic_M.vssx)"/>
			</v:userDefs>
			<v:textBlock v:margins="rect(4,4,4,4)" v:tabSpace="42.5197"/>
			<v:textRect cx="7.08661" cy="177.405" width="14.18" height="14.1732"/>
			<rect x="0" y="170.319" width="14.1732" height="14.1732" class="st1"/>
			<text x="4.59" y="180.41" class="st2" v:langID="2052"><v:paragraph v:horizAlign="1"/><v:tabList/>5</text>		</g>
		<g id="shape417-16" v:mID="417" v:groupContext="shape" transform="translate(78.3278,-170.199)">
			<title>正方形.417</title>
			<desc>8</desc>
			<v:userDefs>
				<v:ud v:nameU="visVersion" v:val="VT0(15):26"/>
				<v:ud v:nameU="visMasterStencil" v:prompt="" v:val="VT4(Basic_M.vssx)"/>
			</v:userDefs>
			<v:textBlock v:margins="rect(4,4,4,4)" v:tabSpace="42.5197"/>
			<v:textRect cx="7.08661" cy="177.405" width="14.18" height="14.1732"/>
			<rect x="0" y="170.319" width="14.1732" height="14.1732" class="st1"/>
			<text x="4.59" y="180.41" class="st2" v:langID="2052"><v:paragraph v:horizAlign="1"/><v:tabList/>8</text>		</g>
		<g id="shape418-19" v:mID="418" v:groupContext="shape" transform="translate(92.501,-170.199)">
			<title>正方形.418</title>
			<desc>6</desc>
			<v:userDefs>
				<v:ud v:nameU="visVersion" v:val="VT0(15):26"/>
				<v:ud v:nameU="visMasterStencil" v:prompt="" v:val="VT4(Basic_M.vssx)"/>
			</v:userDefs>
			<v:textBlock v:margins="rect(4,4,4,4)" v:tabSpace="42.5197"/>
			<v:textRect cx="7.08661" cy="177.405" width="14.18" height="14.1732"/>
			<rect x="0" y="170.319" width="14.1732" height="14.1732" class="st1"/>
			<text x="4.59" y="180.41" class="st2" v:langID="2052"><v:paragraph v:horizAlign="1"/><v:tabList/>6</text>		</g>
		<g id="shape419-22" v:mID="419" v:groupContext="shape" transform="translate(106.674,-170.199)">
			<title>正方形.419</title>
			<desc>4</desc>
			<v:userDefs>
				<v:ud v:nameU="visVersion" v:val="VT0(15):26"/>
				<v:ud v:nameU="visMasterStencil" v:prompt="" v:val="VT4(Basic_M.vssx)"/>
			</v:userDefs>
			<v:textBlock v:margins="rect(4,4,4,4)" v:tabSpace="42.5197"/>
			<v:textRect cx="7.08661" cy="177.405" width="14.18" height="14.1732"/>
			<rect x="0" y="170.319" width="14.1732" height="14.1732" class="st1"/>
			<text x="4.59" y="180.41" class="st2" v:langID="2052"><v:paragraph v:horizAlign="1"/><v:tabList/>4</text>		</g>
		<g id="shape420-25" v:mID="420" v:groupContext="shape" transform="translate(21.6348,-141.852)">
			<title>正方形.420</title>
			<desc>5</desc>
			<v:userDefs>
				<v:ud v:nameU="visVersion" v:val="VT0(15):26"/>
				<v:ud v:nameU="visMasterStencil" v:prompt="" v:val="VT4(Basic_M.vssx)"/>
			</v:userDefs>
			<v:textBlock v:margins="rect(4,4,4,4)" v:tabSpace="42.5197"/>
			<v:textRect cx="7.08661" cy="177.405" width="14.18" height="14.1732"/>
			<rect x="0" y="170.319" width="14.1732" height="14.1732" class="st1"/>
			<text x="4.59" y="180.41" class="st2" v:langID="2052"><v:paragraph v:horizAlign="1"/><v:tabList/>5</text>		</g>
		<g id="shape421-28" v:mID="421" v:groupContext="shape" transform="translate(35.8081,-141.852)">
			<title>正方形.421</title>
			<desc>7</desc>
			<v:userDefs>
				<v:ud v:nameU="visVersion" v:val="VT0(15):26"/>
				<v:ud v:nameU="visMasterStencil" v:prompt="" v:val="VT4(Basic_M.vssx)"/>
			</v:userDefs>
			<v:textBlock v:margins="rect(4,4,4,4)" v:tabSpace="42.5197"/>
			<v:textRect cx="7.08661" cy="177.405" width="14.18" height="14.1732"/>
			<rect x="0" y="170.319" width="14.1732" height="14.1732" class="st1"/>
			<text x="4.59" y="180.41" class="st2" v:langID="2052"><v:paragraph v:horizAlign="1"/><v:tabList/>7</text>		</g>
		<g id="shape422-31" v:mID="422" v:groupContext="shape" transform="translate(49.9813,-141.852)">
			<title>正方形.422</title>
			<desc>1</desc>
			<v:userDefs>
				<v:ud v:nameU="visVersion" v:val="VT0(15):26"/>
				<v:ud v:nameU="visMasterStencil" v:prompt="" v:val="VT4(Basic_M.vssx)"/>
			</v:userDefs>
			<v:textBlock v:margins="rect(4,4,4,4)" v:tabSpace="42.5197"/>
			<v:textRect cx="7.08661" cy="177.405" width="14.18" height="14.1732"/>
			<rect x="0" y="170.319" width="14.1732" height="14.1732" class="st1"/>
			<text x="4.59" y="180.41" class="st2" v:langID="2052"><v:paragraph v:horizAlign="1"/><v:tabList/>1</text>		</g>
		<g id="shape423-34" v:mID="423" v:groupContext="shape" transform="translate(64.1545,-141.852)">
			<title>正方形.423</title>
			<desc>3</desc>
			<v:userDefs>
				<v:ud v:nameU="visVersion" v:val="VT0(15):26"/>
				<v:ud v:nameU="visMasterStencil" v:prompt="" v:val="VT4(Basic_M.vssx)"/>
			</v:userDefs>
			<v:textBlock v:margins="rect(4,4,4,4)" v:tabSpace="42.5197"/>
			<v:textRect cx="7.08661" cy="177.405" width="14.18" height="14.1732"/>
			<rect x="0" y="170.319" width="14.1732" height="14.1732" class="st1"/>
			<text x="4.59" y="180.41" class="st2" v:langID="2052"><v:paragraph v:horizAlign="1"/><v:tabList/>3</text>		</g>
		<g id="shape424-37" v:mID="424" v:groupContext="shape" transform="translate(7.46161,-141.852)">
			<title>正方形.424</title>
			<desc>2</desc>
			<v:userDefs>
				<v:ud v:nameU="visVersion" v:val="VT0(15):26"/>
				<v:ud v:nameU="visMasterStencil" v:prompt="" v:val="VT4(Basic_M.vssx)"/>
			</v:userDefs>
			<v:textBlock v:margins="rect(4,4,4,4)" v:tabSpace="42.5197"/>
			<v:textRect cx="7.08661" cy="177.405" width="14.18" height="14.1732"/>
			<rect x="0" y="170.319" width="14.1732" height="14.1732" class="st1"/>
			<text x="4.59" y="180.41" class="st2" v:langID="2052"><v:paragraph v:horizAlign="1"/><v:tabList/>2</text>		</g>
		<g id="shape425-40" v:mID="425" v:groupContext="shape" transform="translate(78.3278,-141.852)">
			<title>正方形.425</title>
			<desc>8</desc>
			<v:userDefs>
				<v:ud v:nameU="visVersion" v:val="VT0(15):26"/>
				<v:ud v:nameU="visMasterStencil" v:prompt="" v:val="VT4(Basic_M.vssx)"/>
			</v:userDefs>
			<v:textBlock v:margins="rect(4,4,4,4)" v:tabSpace="42.5197"/>
			<v:textRect cx="7.08661" cy="177.405" width="14.18" height="14.1732"/>
			<rect x="0" y="170.319" width="14.1732" height="14.1732" class="st1"/>
			<text x="4.59" y="180.41" class="st2" v:langID="2052"><v:paragraph v:horizAlign="1"/><v:tabList/>8</text>		</g>
		<g id="shape426-43" v:mID="426" v:groupContext="shape" transform="translate(92.501,-141.852)">
			<title>正方形.426</title>
			<desc>6</desc>
			<v:userDefs>
				<v:ud v:nameU="visVersion" v:val="VT0(15):26"/>
				<v:ud v:nameU="visMasterStencil" v:prompt="" v:val="VT4(Basic_M.vssx)"/>
			</v:userDefs>
			<v:textBlock v:margins="rect(4,4,4,4)" v:tabSpace="42.5197"/>
			<v:textRect cx="7.08661" cy="177.405" width="14.18" height="14.1732"/>
			<rect x="0" y="170.319" width="14.1732" height="14.1732" class="st1"/>
			<text x="4.59" y="180.41" class="st2" v:langID="2052"><v:paragraph v:horizAlign="1"/><v:tabList/>6</text>		</g>
		<g id="shape427-46" v:mID="427" v:groupContext="shape" transform="translate(106.674,-141.852)">
			<title>正方形.427</title>
			<desc>4</desc>
			<v:userDefs>
				<v:ud v:nameU="visVersion" v:val="VT0(15):26"/>
				<v:ud v:nameU="visMasterStencil" v:prompt="" v:val="VT4(Basic_M.vssx)"/>
			</v:userDefs>
			<v:textBlock v:margins="rect(4,4,4,4)" v:tabSpace="42.5197"/>
			<v:textRect cx="7.08661" cy="177.405" width="14.18" height="14.1732"/>
			<rect x="0" y="170.319" width="14.1732" height="14.1732" class="st1"/>
			<text x="4.59" y="180.41" class="st2" v:langID="2052"><v:paragraph v:horizAlign="1"/><v:tabList/>4</text>		</g>
		<g id="shape428-49" v:mID="428" v:groupContext="shape" v:layerMember="0" transform="translate(14.5482,-163.112)">
			<title>动态连接线.428</title>
			<path d="M0 191.58 C0 187.63 7.82 186.61 11.85 188.53 L12.06 188.82" class="st3"/>
		</g>
		<g id="shape429-55" v:mID="429" v:groupContext="shape" v:layerMember="0" transform="translate(57.0679,-148.939)">
			<title>动态连接线.429</title>
			<path d="M-0 177.41 C-0 173.46 -7.82 172.44 -11.85 174.36 L-12.06 174.65" class="st3"/>
		</g>
		<g id="shape430-60" v:mID="430" v:groupContext="shape" v:layerMember="0" transform="translate(71.2411,-148.939)">
			<title>动态连接线.430</title>
			<path d="M0 177.41 C0 173.46 7.82 172.44 11.85 174.36 L12.06 174.65" class="st3"/>
		</g>
		<g id="shape431-65" v:mID="431" v:groupContext="shape" v:layerMember="0" transform="translate(113.761,-148.939)">
			<title>动态连接线.431</title>
			<path d="M-0 177.41 C-0 173.46 -7.82 172.44 -11.85 174.36 L-12.06 174.65" class="st3"/>
		</g>
		<g id="shape440-70" v:mID="440" v:groupContext="shape" transform="translate(21.6348,-113.506)">
			<title>正方形.440</title>
			<desc>1</desc>
			<v:userDefs>
				<v:ud v:nameU="visVersion" v:val="VT0(15):26"/>
				<v:ud v:nameU="visMasterStencil" v:prompt="" v:val="VT4(Basic_M.vssx)"/>
			</v:userDefs>
			<v:textBlock v:margins="rect(4,4,4,4)" v:tabSpace="42.5197"/>
			<v:textRect cx="7.08661" cy="177.405" width="14.18" height="14.1732"/>
			<rect x="0" y="170.319" width="14.1732" height="14.1732" class="st1"/>
			<text x="4.59" y="180.41" class="st2" v:langID="2052"><v:paragraph v:horizAlign="1"/><v:tabList/>1</text>		</g>
		<g id="shape441-73" v:mID="441" v:groupContext="shape" transform="translate(35.8081,-113.506)">
			<title>正方形.441</title>
			<desc>7</desc>
			<v:userDefs>
				<v:ud v:nameU="visVersion" v:val="VT0(15):26"/>
				<v:ud v:nameU="visMasterStencil" v:prompt="" v:val="VT4(Basic_M.vssx)"/>
			</v:userDefs>
			<v:textBlock v:margins="rect(4,4,4,4)" v:tabSpace="42.5197"/>
			<v:textRect cx="7.08661" cy="177.405" width="14.18" height="14.1732"/>
			<rect x="0" y="170.319" width="14.1732" height="14.1732" class="st1"/>
			<text x="4.59" y="180.41" class="st2" v:langID="2052"><v:paragraph v:horizAlign="1"/><v:tabList/>7</text>		</g>
		<g id="shape442-76" v:mID="442" v:groupContext="shape" transform="translate(49.9813,-113.506)">
			<title>正方形.442</title>
			<desc>5</desc>
			<v:userDefs>
				<v:ud v:nameU="visVersion" v:val="VT0(15):26"/>
				<v:ud v:nameU="visMasterStencil" v:prompt="" v:val="VT4(Basic_M.vssx)"/>
			</v:userDefs>
			<v:textBlock v:margins="rect(4,4,4,4)" v:tabSpace="42.5197"/>
			<v:textRect cx="7.08661" cy="177.405" width="14.18" height="14.1732"/>
			<rect x="0" y="170.319" width="14.1732" height="14.1732" class="st1"/>
			<text x="4.59" y="180.41" class="st2" v:langID="2052"><v:paragraph v:horizAlign="1"/><v:tabList/>5</text>		</g>
		<g id="shape443-79" v:mID="443" v:groupContext="shape" transform="translate(64.1545,-113.506)">
			<title>正方形.443</title>
			<desc>6</desc>
			<v:userDefs>
				<v:ud v:nameU="visVersion" v:val="VT0(15):26"/>
				<v:ud v:nameU="visMasterStencil" v:prompt="" v:val="VT4(Basic_M.vssx)"/>
			</v:userDefs>
			<v:textBlock v:margins="rect(4,4,4,4)" v:tabSpace="42.5197"/>
			<v:textRect cx="7.08661" cy="177.405" width="14.18" height="14.1732"/>
			<rect x="0" y="170.319" width="14.1732" height="14.1732" class="st1"/>
			<text x="4.59" y="180.41" class="st2" v:langID="2052"><v:paragraph v:horizAlign="1"/><v:tabList/>6</text>		</g>
		<g id="shape444-82" v:mID="444" v:groupContext="shape" transform="translate(7.46161,-113.506)">
			<title>正方形.444</title>
			<desc>2</desc>
			<v:userDefs>
				<v:ud v:nameU="visVersion" v:val="VT0(15):26"/>
				<v:ud v:nameU="visMasterStencil" v:prompt="" v:val="VT4(Basic_M.vssx)"/>
			</v:userDefs>
			<v:textBlock v:margins="rect(4,4,4,4)" v:tabSpace="42.5197"/>
			<v:textRect cx="7.08661" cy="177.405" width="14.18" height="14.1732"/>
			<rect x="0" y="170.319" width="14.1732" height="14.1732" class="st1"/>
			<text x="4.59" y="180.41" class="st2" v:langID="2052"><v:paragraph v:horizAlign="1"/><v:tabList/>2</text>		</g>
		<g id="shape445-85" v:mID="445" v:groupContext="shape" transform="translate(78.3278,-113.506)">
			<title>正方形.445</title>
			<desc>8</desc>
			<v:userDefs>
				<v:ud v:nameU="visVersion" v:val="VT0(15):26"/>
				<v:ud v:nameU="visMasterStencil" v:prompt="" v:val="VT4(Basic_M.vssx)"/>
			</v:userDefs>
			<v:textBlock v:margins="rect(4,4,4,4)" v:tabSpace="42.5197"/>
			<v:textRect cx="7.08661" cy="177.405" width="14.18" height="14.1732"/>
			<rect x="0" y="170.319" width="14.1732" height="14.1732" class="st1"/>
			<text x="4.59" y="180.41" class="st2" v:langID="2052"><v:paragraph v:horizAlign="1"/><v:tabList/>8</text>		</g>
		<g id="shape446-88" v:mID="446" v:groupContext="shape" transform="translate(92.501,-113.506)">
			<title>正方形.446</title>
			<desc>3</desc>
			<v:userDefs>
				<v:ud v:nameU="visVersion" v:val="VT0(15):26"/>
				<v:ud v:nameU="visMasterStencil" v:prompt="" v:val="VT4(Basic_M.vssx)"/>
			</v:userDefs>
			<v:textBlock v:margins="rect(4,4,4,4)" v:tabSpace="42.5197"/>
			<v:textRect cx="7.08661" cy="177.405" width="14.18" height="14.1732"/>
			<rect x="0" y="170.319" width="14.1732" height="14.1732" class="st1"/>
			<text x="4.59" y="180.41" class="st2" v:langID="2052"><v:paragraph v:horizAlign="1"/><v:tabList/>3</text>		</g>
		<g id="shape447-91" v:mID="447" v:groupContext="shape" transform="translate(106.674,-113.506)">
			<title>正方形.447</title>
			<desc>4</desc>
			<v:userDefs>
				<v:ud v:nameU="visVersion" v:val="VT0(15):26"/>
				<v:ud v:nameU="visMasterStencil" v:prompt="" v:val="VT4(Basic_M.vssx)"/>
			</v:userDefs>
			<v:textBlock v:margins="rect(4,4,4,4)" v:tabSpace="42.5197"/>
			<v:textRect cx="7.08661" cy="177.405" width="14.18" height="14.1732"/>
			<rect x="0" y="170.319" width="14.1732" height="14.1732" class="st1"/>
			<text x="4.59" y="180.41" class="st2" v:langID="2052"><v:paragraph v:horizAlign="1"/><v:tabList/>4</text>		</g>
		<g id="shape448-94" v:mID="448" v:groupContext="shape" v:layerMember="0" transform="translate(14.5482,-134.766)">
			<title>动态连接线.448</title>
			<path d="M0 191.58 C0 186.26 7.09 186.26 14.17 186.26 C19.17 186.26 24.17 186.26 26.68 188.13 L26.84 188.45"
					class="st3"/>
		</g>
		<g id="shape450-99" v:mID="450" v:groupContext="shape" v:layerMember="0" transform="translate(99.5876,-120.592)">
			<title>动态连接线.450</title>
			<path d="M0 177.41 C0 172.09 -7.09 172.09 -14.17 172.09 C-19.17 172.09 -24.17 172.09 -26.68 173.95 L-26.84 174.28"
					class="st3"/>
		</g>
		<g id="shape451-104" v:mID="451" v:groupContext="shape" v:layerMember="0" transform="translate(113.761,-120.592)">
			<title>动态连接线.451</title>
			<path d="M0 177.41 C0 173.86 -7.09 173.86 -14.17 173.86 C-18.55 173.86 -22.93 173.86 -25.63 174.7 L-25.89 174.95"
					class="st3"/>
		</g>
		<g id="shape452-109" v:mID="452" v:groupContext="shape" v:layerMember="0" transform="translate(28.7215,-120.592)">
			<title>动态连接线.452</title>
			<path d="M0 177.41 C0 173.86 7.09 173.86 14.17 173.86 C18.55 173.86 22.93 173.86 25.63 174.7 L25.89 174.95" class="st3"/>
		</g>
		<g id="shape453-114" v:mID="453" v:groupContext="shape" transform="translate(21.6348,-85.1594)">
			<title>正方形.453</title>
			<desc>2</desc>
			<v:userDefs>
				<v:ud v:nameU="visVersion" v:val="VT0(15):26"/>
				<v:ud v:nameU="visMasterStencil" v:prompt="" v:val="VT4(Basic_M.vssx)"/>
			</v:userDefs>
			<v:textBlock v:margins="rect(4,4,4,4)" v:tabSpace="42.5197"/>
			<v:textRect cx="7.08661" cy="177.405" width="14.18" height="14.1732"/>
			<rect x="0" y="170.319" width="14.1732" height="14.1732" class="st1"/>
			<text x="4.59" y="180.41" class="st2" v:langID="2052"><v:paragraph v:horizAlign="1"/><v:tabList/>2</text>		</g>
		<g id="shape454-117" v:mID="454" v:groupContext="shape" transform="translate(35.8081,-85.1594)">
			<title>正方形.454</title>
			<desc>5</desc>
			<v:userDefs>
				<v:ud v:nameU="visVersion" v:val="VT0(15):26"/>
				<v:ud v:nameU="visMasterStencil" v:prompt="" v:val="VT4(Basic_M.vssx)"/>
			</v:userDefs>
			<v:textBlock v:margins="rect(4,4,4,4)" v:tabSpace="42.5197"/>
			<v:textRect cx="7.08661" cy="177.405" width="14.18" height="14.1732"/>
			<rect x="0" y="170.319" width="14.1732" height="14.1732" class="st1"/>
			<text x="4.59" y="180.41" class="st2" v:langID="2052"><v:paragraph v:horizAlign="1"/><v:tabList/>5</text>		</g>
		<g id="shape455-120" v:mID="455" v:groupContext="shape" transform="translate(49.9813,-85.1594)">
			<title>正方形.455</title>
			<desc>7</desc>
			<v:userDefs>
				<v:ud v:nameU="visVersion" v:val="VT0(15):26"/>
				<v:ud v:nameU="visMasterStencil" v:prompt="" v:val="VT4(Basic_M.vssx)"/>
			</v:userDefs>
			<v:textBlock v:margins="rect(4,4,4,4)" v:tabSpace="42.5197"/>
			<v:textRect cx="7.08661" cy="177.405" width="14.18" height="14.1732"/>
			<rect x="0" y="170.319" width="14.1732" height="14.1732" class="st1"/>
			<text x="4.59" y="180.41" class="st2" v:langID="2052"><v:paragraph v:horizAlign="1"/><v:tabList/>7</text>		</g>
		<g id="shape456-123" v:mID="456" v:groupContext="shape" transform="translate(64.1545,-85.1594)">
			<title>正方形.456</title>
			<desc>8</desc>
			<v:userDefs>
				<v:ud v:nameU="visVersion" v:val="VT0(15):26"/>
				<v:ud v:nameU="visMasterStencil" v:prompt="" v:val="VT4(Basic_M.vssx)"/>
			</v:userDefs>
			<v:textBlock v:margins="rect(4,4,4,4)" v:tabSpace="42.5197"/>
			<v:textRect cx="7.08661" cy="177.405" width="14.18" height="14.1732"/>
			<rect x="0" y="170.319" width="14.1732" height="14.1732" class="st1"/>
			<text x="4.59" y="180.41" class="st2" v:langID="2052"><v:paragraph v:horizAlign="1"/><v:tabList/>8</text>		</g>
		<g id="shape457-126" v:mID="457" v:groupContext="shape" transform="translate(7.46161,-85.1594)">
			<title>正方形.457</title>
			<desc>1</desc>
			<v:userDefs>
				<v:ud v:nameU="visVersion" v:val="VT0(15):26"/>
				<v:ud v:nameU="visMasterStencil" v:prompt="" v:val="VT4(Basic_M.vssx)"/>
			</v:userDefs>
			<v:textBlock v:margins="rect(4,4,4,4)" v:tabSpace="42.5197"/>
			<v:textRect cx="7.08661" cy="177.405" width="14.18" height="14.1732"/>
			<rect x="0" y="170.319" width="14.1732" height="14.1732" class="st1"/>
			<text x="4.59" y="180.41" class="st2" v:langID="2052"><v:paragraph v:horizAlign="1"/><v:tabList/>1</text>		</g>
		<g id="shape458-129" v:mID="458" v:groupContext="shape" transform="translate(78.3278,-85.1594)">
			<title>正方形.458</title>
			<desc>6</desc>
			<v:userDefs>
				<v:ud v:nameU="visVersion" v:val="VT0(15):26"/>
				<v:ud v:nameU="visMasterStencil" v:prompt="" v:val="VT4(Basic_M.vssx)"/>
			</v:userDefs>
			<v:textBlock v:margins="rect(4,4,4,4)" v:tabSpace="42.5197"/>
			<v:textRect cx="7.08661" cy="177.405" width="14.18" height="14.1732"/>
			<rect x="0" y="170.319" width="14.1732" height="14.1732" class="st1"/>
			<text x="4.59" y="180.41" class="st2" v:langID="2052"><v:paragraph v:horizAlign="1"/><v:tabList/>6</text>		</g>
		<g id="shape459-132" v:mID="459" v:groupContext="shape" transform="translate(92.501,-85.1594)">
			<title>正方形.459</title>
			<desc>4</desc>
			<v:userDefs>
				<v:ud v:nameU="visVersion" v:val="VT0(15):26"/>
				<v:ud v:nameU="visMasterStencil" v:prompt="" v:val="VT4(Basic_M.vssx)"/>
			</v:userDefs>
			<v:textBlock v:margins="rect(4,4,4,4)" v:tabSpace="42.5197"/>
			<v:textRect cx="7.08661" cy="177.405" width="14.18" height="14.1732"/>
			<rect x="0" y="170.319" width="14.1732" height="14.1732" class="st1"/>
			<text x="4.59" y="180.41" class="st2" v:langID="2052"><v:paragraph v:horizAlign="1"/><v:tabList/>4</text>		</g>
		<g id="shape460-135" v:mID="460" v:groupContext="shape" transform="translate(106.674,-85.1594)">
			<title>正方形.460</title>
			<desc>3</desc>
			<v:userDefs>
				<v:ud v:nameU="visVersion" v:val="VT0(15):26"/>
				<v:ud v:nameU="visMasterStencil" v:prompt="" v:val="VT4(Basic_M.vssx)"/>
			</v:userDefs>
			<v:textBlock v:margins="rect(4,4,4,4)" v:tabSpace="42.5197"/>
			<v:textRect cx="7.08661" cy="177.405" width="14.18" height="14.1732"/>
			<rect x="0" y="170.319" width="14.1732" height="14.1732" class="st1"/>
			<text x="4.59" y="180.41" class="st2" v:langID="2052"><v:paragraph v:horizAlign="1"/><v:tabList/>3</text>		</g>
		<g id="shape461-138" v:mID="461" v:groupContext="shape" v:layerMember="0" transform="translate(14.5482,-106.419)">
			<title>动态连接线.461</title>
			<path d="M0 191.58 C0 187.63 7.82 186.61 11.85 188.53 L12.06 188.82" class="st3"/>
		</g>
		<g id="shape462-143" v:mID="462" v:groupContext="shape" v:layerMember="0" transform="translate(42.8947,-92.246)">
			<title>动态连接线.462</title>
			<path d="M0 177.41 C0 173.46 7.82 172.44 11.85 174.36 L12.06 174.65" class="st3"/>
		</g>
		<g id="shape463-148" v:mID="463" v:groupContext="shape" v:layerMember="0" transform="translate(85.4144,-92.246)">
			<title>动态连接线.463</title>
			<path d="M-0 177.41 C-0 173.46 -7.82 172.44 -11.85 174.36 L-12.06 174.65" class="st3"/>
		</g>
		<g id="shape464-153" v:mID="464" v:groupContext="shape" v:layerMember="0" transform="translate(113.761,-92.246)">
			<title>动态连接线.464</title>
			<path d="M-0 177.41 C-0 173.46 -7.82 172.44 -11.85 174.36 L-12.06 174.65" class="st3"/>
		</g>
		<g id="shape465-158" v:mID="465" v:groupContext="shape" transform="translate(21.6348,-56.8129)">
			<title>正方形.465</title>
			<desc>2</desc>
			<v:userDefs>
				<v:ud v:nameU="visVersion" v:val="VT0(15):26"/>
				<v:ud v:nameU="visMasterStencil" v:prompt="" v:val="VT4(Basic_M.vssx)"/>
			</v:userDefs>
			<v:textBlock v:margins="rect(4,4,4,4)" v:tabSpace="42.5197"/>
			<v:textRect cx="7.08661" cy="177.405" width="14.18" height="14.1732"/>
			<rect x="0" y="170.319" width="14.1732" height="14.1732" class="st1"/>
			<text x="4.59" y="180.41" class="st2" v:langID="2052"><v:paragraph v:horizAlign="1"/><v:tabList/>2</text>		</g>
		<g id="shape466-161" v:mID="466" v:groupContext="shape" transform="translate(35.8081,-56.8129)">
			<title>正方形.466</title>
			<desc>4</desc>
			<v:userDefs>
				<v:ud v:nameU="visVersion" v:val="VT0(15):26"/>
				<v:ud v:nameU="visMasterStencil" v:prompt="" v:val="VT4(Basic_M.vssx)"/>
			</v:userDefs>
			<v:textBlock v:margins="rect(4,4,4,4)" v:tabSpace="42.5197"/>
			<v:textRect cx="7.08661" cy="177.405" width="14.18" height="14.1732"/>
			<rect x="0" y="170.319" width="14.1732" height="14.1732" class="st1"/>
			<text x="4.59" y="180.41" class="st2" v:langID="2052"><v:paragraph v:horizAlign="1"/><v:tabList/>4</text>		</g>
		<g id="shape467-164" v:mID="467" v:groupContext="shape" transform="translate(49.9813,-56.8129)">
			<title>正方形.467</title>
			<desc>3</desc>
			<v:userDefs>
				<v:ud v:nameU="visVersion" v:val="VT0(15):26"/>
				<v:ud v:nameU="visMasterStencil" v:prompt="" v:val="VT4(Basic_M.vssx)"/>
			</v:userDefs>
			<v:textBlock v:margins="rect(4,4,4,4)" v:tabSpace="42.5197"/>
			<v:textRect cx="7.08661" cy="177.405" width="14.18" height="14.1732"/>
			<rect x="0" y="170.319" width="14.1732" height="14.1732" class="st1"/>
			<text x="4.59" y="180.41" class="st2" v:langID="2052"><v:paragraph v:horizAlign="1"/><v:tabList/>3</text>		</g>
		<g id="shape468-167" v:mID="468" v:groupContext="shape" transform="translate(64.1545,-56.8129)">
			<title>正方形.468</title>
			<desc>8</desc>
			<v:userDefs>
				<v:ud v:nameU="visVersion" v:val="VT0(15):26"/>
				<v:ud v:nameU="visMasterStencil" v:prompt="" v:val="VT4(Basic_M.vssx)"/>
			</v:userDefs>
			<v:textBlock v:margins="rect(4,4,4,4)" v:tabSpace="42.5197"/>
			<v:textRect cx="7.08661" cy="177.405" width="14.18" height="14.1732"/>
			<rect x="0" y="170.319" width="14.1732" height="14.1732" class="st1"/>
			<text x="4.59" y="180.41" class="st2" v:langID="2052"><v:paragraph v:horizAlign="1"/><v:tabList/>8</text>		</g>
		<g id="shape469-170" v:mID="469" v:groupContext="shape" transform="translate(7.46161,-56.8129)">
			<title>正方形.469</title>
			<desc>1</desc>
			<v:userDefs>
				<v:ud v:nameU="visVersion" v:val="VT0(15):26"/>
				<v:ud v:nameU="visMasterStencil" v:prompt="" v:val="VT4(Basic_M.vssx)"/>
			</v:userDefs>
			<v:textBlock v:margins="rect(4,4,4,4)" v:tabSpace="42.5197"/>
			<v:textRect cx="7.08661" cy="177.405" width="14.18" height="14.1732"/>
			<rect x="0" y="170.319" width="14.1732" height="14.1732" class="st1"/>
			<text x="4.59" y="180.41" class="st2" v:langID="2052"><v:paragraph v:horizAlign="1"/><v:tabList/>1</text>		</g>
		<g id="shape470-173" v:mID="470" v:groupContext="shape" transform="translate(78.3278,-56.8129)">
			<title>正方形.470</title>
			<desc>6</desc>
			<v:userDefs>
				<v:ud v:nameU="visVersion" v:val="VT0(15):26"/>
				<v:ud v:nameU="visMasterStencil" v:prompt="" v:val="VT4(Basic_M.vssx)"/>
			</v:userDefs>
			<v:textBlock v:margins="rect(4,4,4,4)" v:tabSpace="42.5197"/>
			<v:textRect cx="7.08661" cy="177.405" width="14.18" height="14.1732"/>
			<rect x="0" y="170.319" width="14.1732" height="14.1732" class="st1"/>
			<text x="4.59" y="180.41" class="st2" v:langID="2052"><v:paragraph v:horizAlign="1"/><v:tabList/>6</text>		</g>
		<g id="shape471-176" v:mID="471" v:groupContext="shape" transform="translate(92.501,-56.8129)">
			<title>正方形.471</title>
			<desc>5</desc>
			<v:userDefs>
				<v:ud v:nameU="visVersion" v:val="VT0(15):26"/>
				<v:ud v:nameU="visMasterStencil" v:prompt="" v:val="VT4(Basic_M.vssx)"/>
			</v:userDefs>
			<v:textBlock v:margins="rect(4,4,4,4)" v:tabSpace="42.5197"/>
			<v:textRect cx="7.08661" cy="177.405" width="14.18" height="14.1732"/>
			<rect x="0" y="170.319" width="14.1732" height="14.1732" class="st1"/>
			<text x="4.59" y="180.41" class="st2" v:langID="2052"><v:paragraph v:horizAlign="1"/><v:tabList/>5</text>		</g>
		<g id="shape472-179" v:mID="472" v:groupContext="shape" transform="translate(106.674,-56.8129)">
			<title>正方形.472</title>
			<desc>7</desc>
			<v:userDefs>
				<v:ud v:nameU="visVersion" v:val="VT0(15):26"/>
				<v:ud v:nameU="visMasterStencil" v:prompt="" v:val="VT4(Basic_M.vssx)"/>
			</v:userDefs>
			<v:textBlock v:margins="rect(4,4,4,4)" v:tabSpace="42.5197"/>
			<v:textRect cx="7.08661" cy="177.405" width="14.18" height="14.1732"/>
			<rect x="0" y="170.319" width="14.1732" height="14.1732" class="st1"/>
			<text x="4.59" y="180.41" class="st2" v:langID="2052"><v:paragraph v:horizAlign="1"/><v:tabList/>7</text>		</g>
		<g id="shape473-182" v:mID="473" v:groupContext="shape" v:layerMember="0" transform="translate(14.5482,-78.0728)">
			<title>动态连接线.473</title>
			<path d="M0 191.58 C-0 186.26 5.73 186.26 10.59 186.26 C17.76 186.26 23.05 186.26 28.35 186.26 C33.64 186.26 38.93 186.26
						 46.1 186.26 C49.47 186.26 53.25 186.26 55.26 188.03 L55.39 188.36" class="st3"/>
		</g>
		<g id="shape474-187" v:mID="474" v:groupContext="shape" v:layerMember="0" transform="translate(28.7215,-63.8995)">
			<title>动态连接线.474</title>
			<path d="M0 177.41 C0 173.86 5.7 173.86 10.53 173.86 C17.74 173.86 23.04 173.86 28.35 173.86 C33.65 173.86 38.96 173.86
						 46.16 173.86 C48.95 173.86 52.04 173.86 54.14 174.55 L54.38 174.81" class="st3"/>
		</g>
		<g id="shape475-192" v:mID="475" v:groupContext="shape" v:layerMember="0" transform="translate(42.8947,-63.8995)">
			<title>动态连接线.475</title>
			<path d="M0 177.41 C-0 175.63 5.68 175.63 10.5 175.63 C17.72 175.63 23.03 175.63 28.35 175.63 C33.66 175.63 38.97 175.63
						 46.19 175.63 C48.58 175.63 51.18 175.63 53.19 175.85 L53.52 175.99" class="st3"/>
		</g>
		<g id="shape476-197" v:mID="476" v:groupContext="shape" v:layerMember="0" transform="translate(57.0679,-78.0728)">
			<title>动态连接线.476</title>
			<path d="M0 191.58 C0 187.15 5.71 187.15 10.56 187.15 C17.75 187.15 23.05 187.15 28.35 187.15 C33.65 187.15 38.94 187.15
						 46.13 187.15 C49.21 187.15 52.64 187.15 54.73 188.29 L54.92 188.59" class="st3"/>
		</g>
		<g id="shape477-202" v:mID="477" v:groupContext="shape" transform="translate(21.6348,-28.4665)">
			<title>正方形.477</title>
			<desc>2</desc>
			<v:userDefs>
				<v:ud v:nameU="visVersion" v:val="VT0(15):26"/>
				<v:ud v:nameU="visMasterStencil" v:prompt="" v:val="VT4(Basic_M.vssx)"/>
			</v:userDefs>
			<v:textBlock v:margins="rect(4,4,4,4)" v:tabSpace="42.5197"/>
			<v:textRect cx="7.08661" cy="177.405" width="14.18" height="14.1732"/>
			<rect x="0" y="170.319" width="14.1732" height="14.1732" class="st1"/>
			<text x="4.59" y="180.41" class="st2" v:langID="2052"><v:paragraph v:horizAlign="1"/><v:tabList/>2</text>		</g>
		<g id="shape478-205" v:mID="478" v:groupContext="shape" transform="translate(35.8081,-28.4665)">
			<title>正方形.478</title>
			<desc>4</desc>
			<v:userDefs>
				<v:ud v:nameU="visVersion" v:val="VT0(15):26"/>
				<v:ud v:nameU="visMasterStencil" v:prompt="" v:val="VT4(Basic_M.vssx)"/>
			</v:userDefs>
			<v:textBlock v:margins="rect(4,4,4,4)" v:tabSpace="42.5197"/>
			<v:textRect cx="7.08661" cy="177.405" width="14.18" height="14.1732"/>
			<rect x="0" y="170.319" width="14.1732" height="14.1732" class="st1"/>
			<text x="4.59" y="180.41" class="st2" v:langID="2052"><v:paragraph v:horizAlign="1"/><v:tabList/>4</text>		</g>
		<g id="shape479-208" v:mID="479" v:groupContext="shape" transform="translate(49.9813,-28.4665)">
			<title>正方形.479</title>
			<desc>3</desc>
			<v:userDefs>
				<v:ud v:nameU="visVersion" v:val="VT0(15):26"/>
				<v:ud v:nameU="visMasterStencil" v:prompt="" v:val="VT4(Basic_M.vssx)"/>
			</v:userDefs>
			<v:textBlock v:margins="rect(4,4,4,4)" v:tabSpace="42.5197"/>
			<v:textRect cx="7.08661" cy="177.405" width="14.18" height="14.1732"/>
			<rect x="0" y="170.319" width="14.1732" height="14.1732" class="st1"/>
			<text x="4.59" y="180.41" class="st2" v:langID="2052"><v:paragraph v:horizAlign="1"/><v:tabList/>3</text>		</g>
		<g id="shape480-211" v:mID="480" v:groupContext="shape" transform="translate(64.1545,-28.4665)">
			<title>正方形.480</title>
			<desc>5</desc>
			<v:userDefs>
				<v:ud v:nameU="visVersion" v:val="VT0(15):26"/>
				<v:ud v:nameU="visMasterStencil" v:prompt="" v:val="VT4(Basic_M.vssx)"/>
			</v:userDefs>
			<v:textBlock v:margins="rect(4,4,4,4)" v:tabSpace="42.5197"/>
			<v:textRect cx="7.08661" cy="177.405" width="14.18" height="14.1732"/>
			<rect x="0" y="170.319" width="14.1732" height="14.1732" class="st1"/>
			<text x="4.59" y="180.41" class="st2" v:langID="2052"><v:paragraph v:horizAlign="1"/><v:tabList/>5</text>		</g>
		<g id="shape481-214" v:mID="481" v:groupContext="shape" transform="translate(7.46161,-28.4665)">
			<title>正方形.481</title>
			<desc>1</desc>
			<v:userDefs>
				<v:ud v:nameU="visVersion" v:val="VT0(15):26"/>
				<v:ud v:nameU="visMasterStencil" v:prompt="" v:val="VT4(Basic_M.vssx)"/>
			</v:userDefs>
			<v:textBlock v:margins="rect(4,4,4,4)" v:tabSpace="42.5197"/>
			<v:textRect cx="7.08661" cy="177.405" width="14.18" height="14.1732"/>
			<rect x="0" y="170.319" width="14.1732" height="14.1732" class="st1"/>
			<text x="4.59" y="180.41" class="st2" v:langID="2052"><v:paragraph v:horizAlign="1"/><v:tabList/>1</text>		</g>
		<g id="shape482-217" v:mID="482" v:groupContext="shape" transform="translate(78.3278,-28.4665)">
			<title>正方形.482</title>
			<desc>6</desc>
			<v:userDefs>
				<v:ud v:nameU="visVersion" v:val="VT0(15):26"/>
				<v:ud v:nameU="visMasterStencil" v:prompt="" v:val="VT4(Basic_M.vssx)"/>
			</v:userDefs>
			<v:textBlock v:margins="rect(4,4,4,4)" v:tabSpace="42.5197"/>
			<v:textRect cx="7.08661" cy="177.405" width="14.18" height="14.1732"/>
			<rect x="0" y="170.319" width="14.1732" height="14.1732" class="st1"/>
			<text x="4.59" y="180.41" class="st2" v:langID="2052"><v:paragraph v:horizAlign="1"/><v:tabList/>6</text>		</g>
		<g id="shape483-220" v:mID="483" v:groupContext="shape" transform="translate(92.501,-28.4665)">
			<title>正方形.483</title>
			<desc>8</desc>
			<v:userDefs>
				<v:ud v:nameU="visVersion" v:val="VT0(15):26"/>
				<v:ud v:nameU="visMasterStencil" v:prompt="" v:val="VT4(Basic_M.vssx)"/>
			</v:userDefs>
			<v:textBlock v:margins="rect(4,4,4,4)" v:tabSpace="42.5197"/>
			<v:textRect cx="7.08661" cy="177.405" width="14.18" height="14.1732"/>
			<rect x="0" y="170.319" width="14.1732" height="14.1732" class="st1"/>
			<text x="4.59" y="180.41" class="st2" v:langID="2052"><v:paragraph v:horizAlign="1"/><v:tabList/>8</text>		</g>
		<g id="shape484-223" v:mID="484" v:groupContext="shape" transform="translate(106.674,-28.4665)">
			<title>正方形.484</title>
			<desc>7</desc>
			<v:userDefs>
				<v:ud v:nameU="visVersion" v:val="VT0(15):26"/>
				<v:ud v:nameU="visMasterStencil" v:prompt="" v:val="VT4(Basic_M.vssx)"/>
			</v:userDefs>
			<v:textBlock v:margins="rect(4,4,4,4)" v:tabSpace="42.5197"/>
			<v:textRect cx="7.08661" cy="177.405" width="14.18" height="14.1732"/>
			<rect x="0" y="170.319" width="14.1732" height="14.1732" class="st1"/>
			<text x="4.59" y="180.41" class="st2" v:langID="2052"><v:paragraph v:horizAlign="1"/><v:tabList/>7</text>		</g>
		<g id="shape485-226" v:mID="485" v:groupContext="shape" v:layerMember="0" transform="translate(14.5482,-49.7263)">
			<title>动态连接线.485</title>
			<path d="M0 191.58 C0 186.26 7.09 186.26 14.17 186.26 C19.17 186.26 24.17 186.26 26.68 188.13 L26.84 188.45"
					class="st3"/>
		</g>
		<g id="shape486-231" v:mID="486" v:groupContext="shape" v:layerMember="0" transform="translate(28.7215,-35.5531)">
			<title>动态连接线.486</title>
			<path d="M0 177.41 C0 173.86 7.09 173.86 14.17 173.86 C18.55 173.86 22.93 173.86 25.63 174.7 L25.89 174.95" class="st3"/>
		</g>
		<g id="shape487-236" v:mID="487" v:groupContext="shape" v:layerMember="0" transform="translate(71.2411,-49.7263)">
			<title>动态连接线.487</title>
			<path d="M0 191.58 C0 186.26 7.09 186.26 14.17 186.26 C19.17 186.26 24.17 186.26 26.68 188.13 L26.84 188.45"
					class="st3"/>
		</g>
		<g id="shape488-241" v:mID="488" v:groupContext="shape" v:layerMember="0" transform="translate(85.4144,-49.7263)">
			<title>动态连接线.488</title>
			<path d="M0 191.58 C-0 188.04 7.09 188.04 14.17 188.04 C18.55 188.04 22.93 188.04 25.63 188.87 L25.89 189.12"
					class="st3"/>
		</g>
		<g id="shape489-246" v:mID="489" v:groupContext="shape" transform="translate(21.6348,-0.12)">
			<title>正方形.489</title>
			<desc>2</desc>
			<v:userDefs>
				<v:ud v:nameU="visVersion" v:val="VT0(15):26"/>
				<v:ud v:nameU="visMasterStencil" v:prompt="" v:val="VT4(Basic_M.vssx)"/>
			</v:userDefs>
			<v:textBlock v:margins="rect(4,4,4,4)" v:tabSpace="42.5197"/>
			<v:textRect cx="7.08661" cy="177.405" width="14.18" height="14.1732"/>
			<rect x="0" y="170.319" width="14.1732" height="14.1732" class="st1"/>
			<text x="4.59" y="180.41" class="st2" v:langID="2052"><v:paragraph v:horizAlign="1"/><v:tabList/>2</text>		</g>
		<g id="shape490-249" v:mID="490" v:groupContext="shape" transform="translate(35.8081,-0.12)">
			<title>正方形.490</title>
			<desc>3</desc>
			<v:userDefs>
				<v:ud v:nameU="visVersion" v:val="VT0(15):26"/>
				<v:ud v:nameU="visMasterStencil" v:prompt="" v:val="VT4(Basic_M.vssx)"/>
			</v:userDefs>
			<v:textBlock v:margins="rect(4,4,4,4)" v:tabSpace="42.5197"/>
			<v:textRect cx="7.08661" cy="177.405" width="14.18" height="14.1732"/>
			<rect x="0" y="170.319" width="14.1732" height="14.1732" class="st1"/>
			<text x="4.59" y="180.41" class="st2" v:langID="2052"><v:paragraph v:horizAlign="1"/><v:tabList/>3</text>		</g>
		<g id="shape491-252" v:mID="491" v:groupContext="shape" transform="translate(49.9813,-0.12)">
			<title>正方形.491</title>
			<desc>4</desc>
			<v:userDefs>
				<v:ud v:nameU="visVersion" v:val="VT0(15):26"/>
				<v:ud v:nameU="visMasterStencil" v:prompt="" v:val="VT4(Basic_M.vssx)"/>
			</v:userDefs>
			<v:textBlock v:margins="rect(4,4,4,4)" v:tabSpace="42.5197"/>
			<v:textRect cx="7.08661" cy="177.405" width="14.18" height="14.1732"/>
			<rect x="0" y="170.319" width="14.1732" height="14.1732" class="st1"/>
			<text x="4.59" y="180.41" class="st2" v:langID="2052"><v:paragraph v:horizAlign="1"/><v:tabList/>4</text>		</g>
		<g id="shape492-255" v:mID="492" v:groupContext="shape" transform="translate(64.1545,-0.12)">
			<title>正方形.492</title>
			<desc>5</desc>
			<v:userDefs>
				<v:ud v:nameU="visVersion" v:val="VT0(15):26"/>
				<v:ud v:nameU="visMasterStencil" v:prompt="" v:val="VT4(Basic_M.vssx)"/>
			</v:userDefs>
			<v:textBlock v:margins="rect(4,4,4,4)" v:tabSpace="42.5197"/>
			<v:textRect cx="7.08661" cy="177.405" width="14.18" height="14.1732"/>
			<rect x="0" y="170.319" width="14.1732" height="14.1732" class="st1"/>
			<text x="4.59" y="180.41" class="st2" v:langID="2052"><v:paragraph v:horizAlign="1"/><v:tabList/>5</text>		</g>
		<g id="shape493-258" v:mID="493" v:groupContext="shape" transform="translate(7.46161,-0.12)">
			<title>正方形.493</title>
			<desc>1</desc>
			<v:userDefs>
				<v:ud v:nameU="visVersion" v:val="VT0(15):26"/>
				<v:ud v:nameU="visMasterStencil" v:prompt="" v:val="VT4(Basic_M.vssx)"/>
			</v:userDefs>
			<v:textBlock v:margins="rect(4,4,4,4)" v:tabSpace="42.5197"/>
			<v:textRect cx="7.08661" cy="177.405" width="14.18" height="14.1732"/>
			<rect x="0" y="170.319" width="14.1732" height="14.1732" class="st1"/>
			<text x="4.59" y="180.41" class="st2" v:langID="2052"><v:paragraph v:horizAlign="1"/><v:tabList/>1</text>		</g>
		<g id="shape494-261" v:mID="494" v:groupContext="shape" transform="translate(78.3278,-0.12)">
			<title>正方形.494</title>
			<desc>6</desc>
			<v:userDefs>
				<v:ud v:nameU="visVersion" v:val="VT0(15):26"/>
				<v:ud v:nameU="visMasterStencil" v:prompt="" v:val="VT4(Basic_M.vssx)"/>
			</v:userDefs>
			<v:textBlock v:margins="rect(4,4,4,4)" v:tabSpace="42.5197"/>
			<v:textRect cx="7.08661" cy="177.405" width="14.18" height="14.1732"/>
			<rect x="0" y="170.319" width="14.1732" height="14.1732" class="st1"/>
			<text x="4.59" y="180.41" class="st2" v:langID="2052"><v:paragraph v:horizAlign="1"/><v:tabList/>6</text>		</g>
		<g id="shape495-264" v:mID="495" v:groupContext="shape" transform="translate(92.501,-0.12)">
			<title>正方形.495</title>
			<desc>7</desc>
			<v:userDefs>
				<v:ud v:nameU="visVersion" v:val="VT0(15):26"/>
				<v:ud v:nameU="visMasterStencil" v:prompt="" v:val="VT4(Basic_M.vssx)"/>
			</v:userDefs>
			<v:textBlock v:margins="rect(4,4,4,4)" v:tabSpace="42.5197"/>
			<v:textRect cx="7.08661" cy="177.405" width="14.18" height="14.1732"/>
			<rect x="0" y="170.319" width="14.1732" height="14.1732" class="st1"/>
			<text x="4.59" y="180.41" class="st2" v:langID="2052"><v:paragraph v:horizAlign="1"/><v:tabList/>7</text>		</g>
		<g id="shape496-267" v:mID="496" v:groupContext="shape" transform="translate(106.674,-0.12)">
			<title>正方形.496</title>
			<desc>8</desc>
			<v:userDefs>
				<v:ud v:nameU="visVersion" v:val="VT0(15):26"/>
				<v:ud v:nameU="visMasterStencil" v:prompt="" v:val="VT4(Basic_M.vssx)"/>
			</v:userDefs>
			<v:textBlock v:margins="rect(4,4,4,4)" v:tabSpace="42.5197"/>
			<v:textRect cx="7.08661" cy="177.405" width="14.18" height="14.1732"/>
			<rect x="0" y="170.319" width="14.1732" height="14.1732" class="st1"/>
			<text x="4.59" y="180.41" class="st2" v:langID="2052"><v:paragraph v:horizAlign="1"/><v:tabList/>8</text>		</g>
		<g id="shape497-270" v:mID="497" v:groupContext="shape" v:layerMember="0" transform="translate(14.5482,-21.3798)">
			<title>动态连接线.497</title>
			<path d="M0 191.58 C0 187.63 7.82 186.61 11.85 188.53 L12.06 188.82" class="st3"/>
		</g>
		<g id="shape498-275" v:mID="498" v:groupContext="shape" v:layerMember="0" transform="translate(42.8947,-21.3798)">
			<title>动态连接线.498</title>
			<path d="M0 191.58 C0 187.63 7.82 186.61 11.85 188.53 L12.06 188.82" class="st3"/>
		</g>
		<g id="shape499-280" v:mID="499" v:groupContext="shape" v:layerMember="0" transform="translate(71.2411,-7.20661)">
			<title>动态连接线.499</title>
			<path d="M0 177.41 C0 173.46 7.82 172.44 11.85 174.36 L12.06 174.65" class="st3"/>
		</g>
		<g id="shape500-285" v:mID="500" v:groupContext="shape" v:layerMember="0" transform="translate(99.5876,-7.20661)">
			<title>动态连接线.500</title>
			<path d="M0 177.41 C0 173.46 7.82 172.44 11.85 174.36 L12.06 174.65" class="st3"/>
		</g>
		<g id="shape501-290" v:mID="501" v:groupContext="shape" v:layerMember="0" transform="translate(0.375,-70.9861)">
			<title>动态连接线.501</title>
			<path d="M0 177.41 L127.56 177.41" class="st5"/>
		</g>
		<g id="shape502-293" v:mID="502" v:groupContext="shape" v:layerMember="0" transform="translate(0.375,-127.679)">
			<title>动态连接线.502</title>
			<path d="M0 177.41 L127.56 177.41" class="st5"/>
		</g>
		<g id="shape503-296" v:mID="503" v:groupContext="shape" v:layerMember="0" transform="translate(0.375,-156.026)">
			<title>动态连接线.503</title>
			<path d="M0 177.41 L127.56 177.41" class="st5"/>
		</g>
	</g>
</svg>
