<?xml version="1.0" encoding="UTF-8" standalone="no"?>
<svg
   xmlns:dc="http://purl.org/dc/elements/1.1/"
   xmlns:cc="http://creativecommons.org/ns#"
   xmlns:rdf="http://www.w3.org/1999/02/22-rdf-syntax-ns#"
   xmlns:svg="http://www.w3.org/2000/svg"
   xmlns="http://www.w3.org/2000/svg"
   xmlns:sodipodi="http://sodipodi.sourceforge.net/DTD/sodipodi-0.dtd"
   xmlns:inkscape="http://www.inkscape.org/namespaces/inkscape"
   style="font-style:normal;font-weight:normal;font-size:12px;font-family:Dialog;color-interpolation:auto;fill:#000000;fill-opacity:1;stroke:#000000;stroke-width:1;stroke-linecap:square;stroke-linejoin:miter;stroke-miterlimit:10;stroke-dasharray:none;stroke-dashoffset:0;stroke-opacity:1;color-rendering:auto;image-rendering:auto;shape-rendering:auto;text-rendering:auto"
   width="247.0555"
   height="277.83331"
   version="1.1"
   id="svg107"
   sodipodi:docname="eq.svg"
   inkscape:version="0.92.4 (5da689c313, 2019-01-14)">
  <metadata
     id="metadata111">
    <rdf:RDF>
      <cc:Work
         rdf:about="">
        <dc:format>image/svg+xml</dc:format>
        <dc:type
           rdf:resource="http://purl.org/dc/dcmitype/StillImage" />
      </cc:Work>
    </rdf:RDF>
  </metadata>
  <sodipodi:namedview
     pagecolor="#ffffff"
     bordercolor="#666666"
     borderopacity="1"
     objecttolerance="10"
     gridtolerance="10"
     guidetolerance="10"
     inkscape:pageopacity="0"
     inkscape:pageshadow="2"
     inkscape:window-width="1920"
     inkscape:window-height="1001"
     id="namedview109"
     showgrid="false"
     inkscape:zoom="0.95477362"
     inkscape:cx="631.90356"
     inkscape:cy="176.52077"
     inkscape:window-x="-9"
     inkscape:window-y="-9"
     inkscape:window-maximized="1"
     inkscape:current-layer="svg107" />
  <!--Generated by the Batik Graphics2D SVG Generator-->
  <defs
     id="genericDefs">
    <defs
       id="defs1">
      <clipPath
         id="clipPath1"
         clipPathUnits="userSpaceOnUse">
        <path
           id="path3"
           d="M 0,0 H 1182 V 338 H 0 Z"
           inkscape:connector-curvature="0" />
      </clipPath>
    </defs>
  </defs>
  <g
     id="g29"
     style="color-interpolation:linearRGB;fill:#262626;stroke:#262626;stroke-width:0.83329999;stroke-linejoin:round;color-rendering:optimizeQuality;image-rendering:optimizeQuality;text-rendering:geometricPrecision"
     transform="translate(-488.47224,-24.58335)">
    <line
       id="line17"
       y1="271.2222"
       x2="735.11108"
       x1="488.88889"
       style="fill:none"
       y2="271.2222" />
    <line
       id="line19"
       y1="271.2222"
       x2="488.88889"
       x1="488.88889"
       style="fill:none"
       y2="268.45221" />
    <line
       id="line21"
       y1="271.2222"
       x2="550.44452"
       x1="550.44452"
       style="fill:none"
       y2="268.45221" />
    <line
       id="line23"
       y1="271.2222"
       x2="612"
       x1="612"
       style="fill:none"
       y2="268.45221" />
    <line
       id="line25"
       y1="271.2222"
       x2="673.55548"
       x1="673.55548"
       style="fill:none"
       y2="268.45221" />
    <line
       id="line27"
       y1="271.2222"
       x2="735.11108"
       x1="735.11108"
       style="fill:none"
       y2="268.45221" />
  </g>
  <g
     id="g33"
     style="font-size:17px;font-family:SansSerif;color-interpolation:linearRGB;fill:#262626;stroke:#262626;color-rendering:optimizeQuality;image-rendering:optimizeQuality;text-rendering:geometricPrecision"
     transform="translate(61.972264,253.30555)">
    <path
       inkscape:connector-curvature="0"
       id="path31"
       d="m -7.4531,14.3438 v -1.5 h 4.5781 v 1.5 z M 3.9893,18 H 2.5049 V 8.4844 Q 1.958,9 1.083,9.5078 0.208,10.0156 -0.4951,10.2812 V 8.8281 Q 0.7705,8.25 1.708,7.4062 2.6455,6.5625 3.0361,5.7812 h 0.9532 z"
       style="stroke:none" />
  </g>
  <g
     id="g37"
     style="font-size:17px;font-family:SansSerif;color-interpolation:linearRGB;fill:#262626;stroke:#262626;color-rendering:optimizeQuality;image-rendering:optimizeQuality;text-rendering:geometricPrecision"
     transform="translate(185.08326,253.30555)">
    <path
       inkscape:connector-curvature="0"
       id="path35"
       d="M 1.3281,18 H -0.1562 V 8.4844 Q -0.7031,9 -1.5781,9.5078 q -0.875,0.5078 -1.5781,0.7734 V 8.8281 Q -1.8906,8.25 -0.9531,7.4062 -0.0156,6.5625 0.375,5.7812 h 0.9531 z"
       style="stroke:none" />
  </g>
  <g
     id="g49"
     style="color-interpolation:linearRGB;fill:#262626;stroke:#262626;stroke-width:0.83329999;stroke-linejoin:round;color-rendering:optimizeQuality;image-rendering:optimizeQuality;text-rendering:geometricPrecision"
     transform="translate(-488.47224,-24.58335)">
    <line
       id="line39"
       y1="302"
       x2="612"
       x1="612"
       style="fill:none"
       y2="25" />
    <line
       id="line41"
       y1="209.6667"
       x2="614.77002"
       x1="612"
       style="fill:none"
       y2="209.6667" />
    <line
       id="line43"
       y1="148.1111"
       x2="614.77002"
       x1="612"
       style="fill:none"
       y2="148.1111" />
    <line
       id="line45"
       y1="86.555603"
       x2="614.77002"
       x1="612"
       style="fill:none"
       y2="86.555603" />
    <line
       id="line47"
       y1="25"
       x2="614.77002"
       x1="612"
       style="fill:none"
       y2="25" />
  </g>
  <g
     id="g53"
     style="font-size:17px;font-family:SansSerif;color-interpolation:linearRGB;fill:#262626;stroke:#262626;color-rendering:optimizeQuality;image-rendering:optimizeQuality;text-rendering:geometricPrecision"
     transform="translate(116.86106,185.08335)">
    <path
       inkscape:connector-curvature="0"
       id="path51"
       d="M -3.6719,7 H -5.1562 V -2.5156 Q -5.7031,-2 -6.5781,-1.4922 q -0.875,0.5078 -1.5781,0.7734 v -1.4531 q 1.2656,-0.5781 2.2031,-1.4219 0.9375,-0.8437 1.3281,-1.625 h 0.9531 z"
       style="stroke:none" />
  </g>
  <g
     id="g57"
     style="font-size:17px;font-family:SansSerif;color-interpolation:linearRGB;fill:#262626;stroke:#262626;color-rendering:optimizeQuality;image-rendering:optimizeQuality;text-rendering:geometricPrecision"
     transform="translate(116.86106,123.52775)">
    <path
       inkscape:connector-curvature="0"
       id="path55"
       d="M -1.4375,5.5625 V 7 H -9.4844 Q -9.5,6.4531 -9.3125,5.9688 -9,5.1406 -8.3281,4.3438 -7.6562,3.5469 -6.375,2.5 -4.3906,0.875 -3.6953,-0.0781 -3,-1.0312 -3,-1.875 q 0,-0.8906 -0.6328,-1.5 -0.6328,-0.6094 -1.6484,-0.6094 -1.0782,0 -1.7266,0.6485 -0.6484,0.6484 -0.6641,1.789 l -1.5312,-0.1562 q 0.1562,-1.7188 1.1875,-2.6172 1.0312,-0.8985 2.7656,-0.8985 1.75,0 2.7734,0.9688 1.0235,0.9688 1.0235,2.4062 0,0.7344 -0.3047,1.4376 -0.3047,0.7031 -0.9922,1.4843 -0.6875,0.7813 -2.2969,2.1407 -1.3437,1.1406 -1.7265,1.539 -0.3828,0.3984 -0.6328,0.8047 z"
       style="stroke:none" />
  </g>
  <g
     id="g61"
     style="font-size:17px;font-family:SansSerif;color-interpolation:linearRGB;fill:#262626;stroke:#262626;color-rendering:optimizeQuality;image-rendering:optimizeQuality;text-rendering:geometricPrecision"
     transform="translate(116.86106,61.97225)">
    <path
       inkscape:connector-curvature="0"
       id="path59"
       d="m -9.2812,3.7812 1.4843,-0.1874 q 0.2657,1.2656 0.8828,1.8281 0.6172,0.5625 1.5079,0.5625 1.0468,0 1.7734,-0.7344 0.7266,-0.7344 0.7266,-1.8125 0,-1.0313 -0.6719,-1.6953 -0.6719,-0.6641 -1.7031,-0.6641 -0.4219,0 -1.0626,0.1563 l 0.1719,-1.3125 q 0.1407,0.0156 0.2344,0.0156 0.9531,0 1.7187,-0.4922 0.7657,-0.4922 0.7657,-1.5391 0,-0.8124 -0.5547,-1.3515 -0.5547,-0.5391 -1.4297,-0.5391 -0.875,0 -1.4531,0.5469 -0.5782,0.5469 -0.75,1.6406 l -1.5,-0.2656 q 0.2812,-1.5 1.25,-2.3281 0.9687,-0.8282 2.4218,-0.8282 0.9844,0 1.8282,0.4297 0.8437,0.4297 1.2812,1.1641 0.4375,0.7344 0.4375,1.5625 0,0.7969 -0.4219,1.4453 -0.4218,0.6484 -1.25,1.0234 1.0782,0.25 1.6797,1.0391 0.6016,0.7891 0.6016,1.9609 0,1.5938 -1.1641,2.7032 -1.164,1.1094 -2.9453,1.1094 -1.5937,0 -2.6562,-0.9532 -1.0625,-0.9531 -1.2031,-2.4844 z"
       style="stroke:none" />
  </g>
  <g
     id="g67"
     style="color-interpolation:linearRGB;fill:#0072bd;stroke:#0072bd;stroke-width:0.83329999;stroke-linecap:butt;stroke-linejoin:round;color-rendering:optimizeQuality;image-rendering:optimizeQuality;text-rendering:geometricPrecision"
     transform="translate(-488.47224,-24.58335)">
    <path
       inkscape:connector-curvature="0"
       id="path63"
       style="fill:none;fill-rule:evenodd"
       d="m 488.8889,25 6.1555,24.0067 6.1556,22.7755 6.1556,21.5445 6.1555,20.3133 6.1556,19.0822 6.1555,17.8511 6.1556,16.62 6.1555,15.3889 6.1556,14.1578 6.1556,12.9267 6.1555,11.6955 6.1556,10.4645 6.1555,9.2333 6.1556,8.0022 6.1555,6.7711 6.1556,5.54 6.1555,4.3089 6.1556,3.0778 6.1555,1.8467 6.1556,0.6155 6.1556,-0.6155 6.1555,-1.8467 6.1556,-3.0778 6.1555,-4.3089 6.1556,-5.54 6.1555,-6.7711 6.1556,-8.0022 6.1555,-9.2333 6.1556,-10.4645 6.1555,-11.6955 6.1556,-12.9267 6.1556,-14.1578 6.1555,-15.3889 6.1556,-16.62 6.1555,-17.8511 6.1556,-19.0822 6.1556,-20.3133 L 722.8,71.7822 728.9556,49.0067 735.1111,25" />
    <path
       inkscape:connector-curvature="0"
       id="path65"
       style="fill:none;fill-rule:evenodd;stroke:#d95319"
       d="m 693.4318,148.1111 -0.1606,-5.1131 -0.4815,-5.093 -0.8003,-5.0527 -1.1159,-4.9925 -1.4272,-4.9125 -1.7329,-4.8132 -2.0316,-4.695 -2.3225,-4.5581 -2.6041,-4.4033 -2.8754,-4.231 -3.1355,-4.0422 -3.383,-3.8373 -3.6173,-3.6174 -3.8374,-3.383 -4.0422,-3.1354 -4.231,-2.8755 -4.4033,-2.6041 -4.5581,-2.3224 -4.6949,-2.0317 -4.8133,-1.7329 -4.9125,-1.4272 -4.9925,-1.1159 -5.0527,-0.8003 L 617.1132,66.84 612,66.6793 l -5.1132,0.1607 -5.0929,0.4814 -5.0527,0.8003 -4.9925,1.1159 -4.9125,1.4272 -4.8133,1.7329 -4.6949,2.0317 -4.5581,2.3224 -4.4033,2.6041 -4.231,2.8755 -4.0422,3.1354 -3.8374,3.383 -3.6173,3.6174 -3.383,3.8373 -3.1355,4.0422 -2.8754,4.231 -2.6041,4.4033 -2.3225,4.5581 -2.0316,4.695 -1.7329,4.8132 -1.4272,4.9125 -1.1159,4.9925 -0.8003,5.0527 -0.4815,5.093 -0.1606,5.1131 0.1606,5.1132 0.4815,5.0929 0.8003,5.0527 1.1159,4.9925 1.4272,4.9125 1.7329,4.8133 2.0316,4.6949 2.3225,4.5581 2.6041,4.4033 2.8754,4.231 3.1355,4.0422 3.383,3.8373 3.6173,3.6174 3.8374,3.383 4.0422,3.1355 4.231,2.8754 4.4033,2.6041 4.5581,2.3224 4.6949,2.0317 4.8133,1.7329 4.9125,1.4272 4.9925,1.116 5.0527,0.8002 5.0929,0.4815 5.1132,0.1607 5.1132,-0.1607 5.0929,-0.4815 5.0527,-0.8002 4.9925,-1.116 4.9125,-1.4272 4.8133,-1.7329 4.6949,-2.0317 4.5581,-2.3224 4.4033,-2.6041 4.231,-2.8754 4.0422,-3.1355 3.8374,-3.383 3.6173,-3.6174 3.383,-3.8373 3.1355,-4.0422 2.8754,-4.231 2.6041,-4.4033 2.3225,-4.5581 2.0316,-4.6949 1.7329,-4.8133 1.4272,-4.9125 1.1159,-4.9925 0.8003,-5.0527 0.4815,-5.0929 0.1606,-5.1132" />
  </g>
  <g
     id="g71"
     style="font-size:17px;font-family:mwb_cmsy10;color-interpolation:linearRGB;color-rendering:optimizeQuality;image-rendering:optimizeQuality;text-rendering:geometricPrecision"
     transform="translate(52.527764,94.41665)">
    <path
       inkscape:connector-curvature="0"
       id="path69"
       d="M 4.5781,0.0312 Q 4.4531,-0.6719 4.1484,-1.3125 3.8438,-1.9531 3.3906,-2.4922 2.9375,-3.0312 2.3516,-3.4453 1.7656,-3.8594 1.0938,-4.0781 0.9531,-4.1094 0.9531,-4.25 q 0,-0.125 0.1407,-0.1875 0.6874,-0.25 1.2656,-0.6406 0.5781,-0.3907 1.0312,-0.9297 0.4532,-0.5391 0.7578,-1.1875 0.3047,-0.6485 0.4297,-1.3359 0.0313,-0.1563 0.1563,-0.1563 h 0.3437 q 0.1719,0 0.1719,0.2187 -0.1875,1.125 -0.8281,2.1485 -0.6407,1.0234 -1.6094,1.7265 h 12.8906 q 0.1407,0 0.2344,0.1094 0.0937,0.1094 0.0937,0.2344 0,0.125 -0.0937,0.2344 -0.0937,0.1094 -0.2344,0.1094 H 2.8125 q 0.9531,0.6718 1.6016,1.7109 0.6484,1.0391 0.8359,2.1641 0,0.2187 -0.1719,0.2187 H 4.7344 q -0.125,0 -0.1563,-0.1563 z"
       style="stroke:none" />
  </g>
  <g
     id="g75"
     style="font-size:17px;font-family:SansSerif;color-interpolation:linearRGB;color-rendering:optimizeQuality;image-rendering:optimizeQuality;text-rendering:geometricPrecision"
     transform="translate(69.527764,94.41665)">
    <path
       inkscape:connector-curvature="0"
       id="path73"
       d="M 4.8481,0 8.0669,-4.5781 5.0825,-8.8125 h 1.875 L 8.3169,-6.75 q 0.375,0.5938 0.6094,0.9844 0.3593,-0.5469 0.6718,-0.9688 l 1.4844,-2.0781 h 1.7813 L 9.8169,-4.6719 13.0981,0 H 11.27 L 9.4575,-2.7344 8.9731,-3.4844 6.6606,0 Z"
       style="stroke:none" />
  </g>
  <g
     id="g79"
     style="font-size:13px;font-family:SansSerif;color-interpolation:linearRGB;color-rendering:optimizeQuality;image-rendering:optimizeQuality;text-rendering:geometricPrecision"
     transform="translate(83.527764,86.41665)">
    <path
       inkscape:connector-curvature="0"
       id="path77"
       d="M 6.5469,-1.0938 V 0 H 0.3906 q -0.0156,-0.4062 0.1406,-0.7969 0.2344,-0.625 0.75,-1.2343 0.5157,-0.6094 1.5,-1.4063 1.5157,-1.25 2.0469,-1.9766 0.5313,-0.7265 0.5313,-1.3671 0,-0.6876 -0.4844,-1.1485 -0.4844,-0.4609 -1.2656,-0.4609 -0.8282,0 -1.3203,0.4922 -0.4922,0.4922 -0.5079,1.3672 l -1.1718,-0.125 q 0.125,-1.3126 0.9062,-2 0.7813,-0.6876 2.1094,-0.6876 1.3438,0 2.125,0.7422 0.7812,0.7422 0.7812,1.836 0,0.5625 -0.2265,1.1015 -0.2266,0.5391 -0.7578,1.1407 -0.5313,0.6015 -1.7657,1.6328 -1.0312,0.8594 -1.3203,1.1718 -0.289,0.3126 -0.4765,0.625 z"
       style="stroke:none" />
  </g>
  <g
     id="g83"
     style="font-size:17px;font-family:SansSerif;color-interpolation:linearRGB;color-rendering:optimizeQuality;image-rendering:optimizeQuality;text-rendering:geometricPrecision"
     transform="translate(91.527764,94.41665)">
    <path
       inkscape:connector-curvature="0"
       id="path81"
       d="M 4.2656,-1.9688 V -5.2969 H 0.9531 v -1.4062 h 3.3125 v -3.3125 h 1.4063 v 3.3125 h 3.3125 v 1.4062 H 5.6719 v 3.3281 z m 9.6309,5.5469 q -1.2344,-1.5625 -2.086,-3.6562 -0.8515,-2.0938 -0.8515,-4.3281 0,-1.9844 0.6406,-3.7813 0.75,-2.1094 2.2969,-4.1875 h 1.0781 q -1,1.7188 -1.3281,2.4688 -0.5,1.1406 -0.7969,2.3906 -0.3594,1.5468 -0.3594,3.1094 0,4 2.4844,7.9843 z M 16.6357,3.3906 16.4795,2 q 0.4844,0.125 0.8594,0.125 0.4843,0 0.789,-0.1641 Q 18.4326,1.7969 18.6201,1.5 18.7607,1.2656 19.0732,0.375 19.1201,0.25 19.2139,0.0156 l -3.3438,-8.8281 h 1.6094 l 1.8281,5.1094 q 0.3594,0.9687 0.6406,2.0312 0.25,-1.0312 0.6094,-2 l 1.8906,-5.1406 h 1.4844 l -3.3437,8.9687 q -0.5469,1.4532 -0.8438,2 -0.3906,0.7344 -0.9062,1.0782 -0.5157,0.3437 -1.2344,0.3437 -0.4375,0 -0.9688,-0.1875 z m 8,-7.0468 v -1.5 h 4.5782 v 1.5 z m 13.6768,2.2187 V 0 H 30.2656 Q 30.25,-0.5469 30.4375,-1.0312 30.75,-1.8594 31.4219,-2.6562 32.0938,-3.4531 33.375,-4.5 35.3594,-6.125 36.0547,-7.0781 36.75,-8.0312 36.75,-8.875 q 0,-0.8906 -0.6328,-1.5 -0.6328,-0.6094 -1.6484,-0.6094 -1.0782,0 -1.7266,0.6485 -0.6484,0.6484 -0.6641,1.789 l -1.5312,-0.1562 q 0.1562,-1.7188 1.1875,-2.6172 1.0312,-0.8985 2.7656,-0.8985 1.75,0 2.7734,0.9688 1.0235,0.9688 1.0235,2.4062 0,0.7344 -0.3047,1.4376 -0.3047,0.7031 -0.9922,1.4843 -0.6875,0.7813 -2.2969,2.1407 -1.3437,1.1406 -1.7265,1.539 -0.3828,0.3984 -0.6328,0.8047 z m 2.9858,5.0156 h -1.0625 q 2.4844,-3.9843 2.4844,-7.9843 0,-1.5469 -0.3594,-3.0938 -0.2812,-1.2344 -0.7968,-2.3906 -0.3125,-0.75 -1.3282,-2.4844 h 1.0625 q 1.5625,2.0781 2.3125,4.1875 0.6407,1.7969 0.6407,3.7813 0,2.2343 -0.8594,4.3281 -0.8594,2.0937 -2.0938,3.6562 z"
       style="stroke:none" />
  </g>
  <g
     id="g87"
     style="font-size:13px;font-family:SansSerif;color-interpolation:linearRGB;color-rendering:optimizeQuality;image-rendering:optimizeQuality;text-rendering:geometricPrecision"
     transform="translate(136.52776,86.41665)">
    <path
       inkscape:connector-curvature="0"
       id="path85"
       d="M 6.5469,-1.0938 V 0 H 0.3906 q -0.0156,-0.4062 0.1406,-0.7969 0.2344,-0.625 0.75,-1.2343 0.5157,-0.6094 1.5,-1.4063 1.5157,-1.25 2.0469,-1.9766 0.5313,-0.7265 0.5313,-1.3671 0,-0.6876 -0.4844,-1.1485 -0.4844,-0.4609 -1.2656,-0.4609 -0.8282,0 -1.3203,0.4922 -0.4922,0.4922 -0.5079,1.3672 l -1.1718,-0.125 q 0.125,-1.3126 0.9062,-2 0.7813,-0.6876 2.1094,-0.6876 1.3438,0 2.125,0.7422 0.7812,0.7422 0.7812,1.836 0,0.5625 -0.2265,1.1015 -0.2266,0.5391 -0.7578,1.1407 -0.5313,0.6015 -1.7657,1.6328 -1.0312,0.8594 -1.3203,1.1718 -0.289,0.3126 -0.4765,0.625 z"
       style="stroke:none" />
  </g>
  <g
     id="g91"
     style="font-size:17px;font-family:SansSerif;color-interpolation:linearRGB;color-rendering:optimizeQuality;image-rendering:optimizeQuality;text-rendering:geometricPrecision"
     transform="translate(144.52776,94.41665)">
    <path
       inkscape:connector-curvature="0"
       id="path89"
       d="M 8.9844,-7.1562 H 0.9531 v -1.3907 h 8.0313 z m 0,3.6874 H 0.9531 V -4.8594 H 8.9844 Z M 16.2559,0 H 14.7715 V -9.5156 Q 14.2246,-9 13.3496,-8.4922 q -0.875,0.5078 -1.5781,0.7734 v -1.4531 q 1.2656,-0.5781 2.2031,-1.4219 0.9375,-0.8437 1.3281,-1.625 h 0.9532 z m 4.6733,0 v -1.7031 h 1.7031 V 0 Z m 3.9888,-10.5781 v -1.4375 h 7.875 v 1.1718 q -1.1719,1.2344 -2.3125,3.2813 -1.1407,2.0469 -1.7657,4.2187 Q 28.2773,-1.8125 28.1523,0 h -1.5468 q 0.0312,-1.4375 0.5703,-3.4688 0.539,-2.0312 1.5469,-3.9218 1.0078,-1.8906 2.1484,-3.1875 z m 9.3452,7.3906 1.5781,-0.1406 q 0.1719,1.1562 0.8047,1.7343 0.6328,0.5782 1.5234,0.5782 1.0782,0 1.8282,-0.8125 0.75,-0.8125 0.75,-2.1719 0,-1.2656 -0.7188,-2.0078 -0.7187,-0.7422 -1.875,-0.7422 -0.7187,0 -1.3047,0.3281 -0.5859,0.3281 -0.914,0.8594 L 34.5288,-5.75 35.7163,-12 h 6.0469 v 1.4219 h -4.8594 l -0.6562,3.2656 q 1.0937,-0.75 2.2968,-0.75 1.5938,0 2.6953,1.1016 1.1016,1.1015 1.1016,2.8359 0,1.6562 -0.9687,2.8594 -1.1719,1.4687 -3.2032,1.4687 -1.6562,0 -2.7031,-0.9297 -1.0469,-0.9296 -1.2031,-2.4609 z"
       style="stroke:none" />
  </g>
  <g
     id="g95"
     style="font-size:17px;font-family:mwb_cmsy10;color-interpolation:linearRGB;color-rendering:optimizeQuality;image-rendering:optimizeQuality;text-rendering:geometricPrecision"
     transform="translate(170.52776,224.41665)">
    <path
       inkscape:connector-curvature="0"
       id="path93"
       d="M 4.5781,0.0312 Q 4.4531,-0.6719 4.1484,-1.3125 3.8438,-1.9531 3.3906,-2.4922 2.9375,-3.0312 2.3516,-3.4453 1.7656,-3.8594 1.0938,-4.0781 0.9531,-4.1094 0.9531,-4.25 q 0,-0.125 0.1407,-0.1875 0.6874,-0.25 1.2656,-0.6406 0.5781,-0.3907 1.0312,-0.9297 0.4532,-0.5391 0.7578,-1.1875 0.3047,-0.6485 0.4297,-1.3359 0.0313,-0.1563 0.1563,-0.1563 h 0.3437 q 0.1719,0 0.1719,0.2187 -0.1875,1.125 -0.8281,2.1485 -0.6407,1.0234 -1.6094,1.7265 h 12.8906 q 0.1407,0 0.2344,0.1094 0.0937,0.1094 0.0937,0.2344 0,0.125 -0.0937,0.2344 -0.0937,0.1094 -0.2344,0.1094 H 2.8125 q 0.9531,0.6718 1.6016,1.7109 0.6484,1.0391 0.8359,2.1641 0,0.2187 -0.1719,0.2187 H 4.7344 q -0.125,0 -0.1563,-0.1563 z"
       style="stroke:none" />
  </g>
  <g
     id="g99"
     style="font-size:17px;font-family:SansSerif;color-interpolation:linearRGB;color-rendering:optimizeQuality;image-rendering:optimizeQuality;text-rendering:geometricPrecision"
     transform="translate(187.52776,224.41665)">
    <path
       inkscape:connector-curvature="0"
       id="path97"
       d="M 5.77,3.3906 5.6138,2 q 0.4843,0.125 0.8593,0.125 0.4844,0 0.7891,-0.1641 Q 7.5669,1.7969 7.7544,1.5 7.895,1.2656 8.2075,0.375 8.2544,0.25 8.3481,0.0156 L 5.0044,-8.8125 h 1.6094 l 1.8281,5.1094 q 0.3594,0.9687 0.6406,2.0312 0.25,-1.0312 0.6094,-2 l 1.8906,-5.1406 h 1.4844 L 9.7231,0.1562 q -0.5468,1.4532 -0.8437,2 Q 8.4888,2.8906 7.9731,3.2344 7.4575,3.5781 6.7388,3.5781 6.3013,3.5781 5.77,3.3906 Z M 22.2075,-7.1562 h -8.0312 v -1.3907 h 8.0312 z m 0,3.6874 h -8.0312 v -1.3906 h 8.0312 z M 23.2759,0 26.4946,-4.5781 23.5103,-8.8125 h 1.875 l 1.3593,2.0625 q 0.375,0.5938 0.6094,0.9844 0.3594,-0.5469 0.6719,-0.9688 l 1.4844,-2.0781 h 1.7812 L 28.2446,-4.6719 31.5259,0 H 29.6978 L 27.8853,-2.7344 27.4009,-3.4844 25.0884,0 Z"
       style="stroke:none" />
  </g>
  <g
     id="g103"
     style="font-size:13px;font-family:SansSerif;color-interpolation:linearRGB;color-rendering:optimizeQuality;image-rendering:optimizeQuality;text-rendering:geometricPrecision"
     transform="translate(219.52776,216.41665)">
    <path
       inkscape:connector-curvature="0"
       id="path101"
       d="M 6.5469,-1.0938 V 0 H 0.3906 q -0.0156,-0.4062 0.1406,-0.7969 0.2344,-0.625 0.75,-1.2343 0.5157,-0.6094 1.5,-1.4063 1.5157,-1.25 2.0469,-1.9766 0.5313,-0.7265 0.5313,-1.3671 0,-0.6876 -0.4844,-1.1485 -0.4844,-0.4609 -1.2656,-0.4609 -0.8282,0 -1.3203,0.4922 -0.4922,0.4922 -0.5079,1.3672 l -1.1718,-0.125 q 0.125,-1.3126 0.9062,-2 0.7813,-0.6876 2.1094,-0.6876 1.3438,0 2.125,0.7422 0.7812,0.7422 0.7812,1.836 0,0.5625 -0.2265,1.1015 -0.2266,0.5391 -0.7578,1.1407 -0.5313,0.6015 -1.7657,1.6328 -1.0312,0.8594 -1.3203,1.1718 -0.289,0.3126 -0.4765,0.625 z"
       style="stroke:none" />
  </g>
</svg>
